<svg width="14" height="15" viewBox="0 0 14 15" fill="none" xmlns="http://www.w3.org/2000/svg">
<path d="M11.1829 3.02828H10.1624C10.053 2.21726 9.65662 1.47228 9.04517 0.92837C8.43371 0.384462 7.64761 0.0776246 6.82938 0.0634766C6.01114 0.0776246 5.22504 0.384462 4.61359 0.92837C4.00213 1.47228 3.60578 2.21726 3.49638 3.02828H2.47638C1.91516 3.02865 1.37703 3.2517 0.980122 3.64846C0.583211 4.04522 0.359958 4.58327 0.359375 5.14448V12.86C0.359878 13.4211 0.58298 13.9591 0.979721 14.356C1.37646 14.7528 1.91443 14.976 2.47557 14.9767H11.1826C11.7438 14.9762 12.2819 14.753 12.6788 14.3562C13.0757 13.9593 13.2989 13.4212 13.2994 12.86V5.14448C13.2988 4.58335 13.0756 4.04538 12.6788 3.64863C12.282 3.25189 11.744 3.02878 11.1829 3.02828ZM6.82938 1.16308C7.35679 1.17454 7.86449 1.36565 8.26856 1.7048C8.67262 2.04395 8.94885 2.51084 9.05158 3.02828H4.60717C4.7099 2.51084 4.98613 2.04395 5.39019 1.7048C5.79426 1.36565 6.30196 1.17454 6.82938 1.16308ZM12.1994 12.86C12.1991 13.1296 12.0919 13.388 11.9013 13.5787C11.7108 13.7693 11.4524 13.8767 11.1828 13.8771H2.47588C2.20632 13.8766 1.94794 13.7693 1.75739 13.5786C1.56684 13.388 1.45967 13.1295 1.45938 12.86V5.14448C1.45969 4.87496 1.5669 4.61656 1.75748 4.42598C1.94806 4.2354 2.20645 4.12819 2.47598 4.12788H11.183C11.4525 4.12825 11.7108 4.23548 11.9013 4.42605C12.0919 4.61663 12.1991 4.87499 12.1994 5.14448V12.86Z" fill="white" fill-opacity="0.8"/>
</svg>
