<svg width="14" height="17" viewBox="0 0 14 17" fill="none" xmlns="http://www.w3.org/2000/svg">
<path d="M13.0726 5.68229C12.5517 6.00119 12.1202 6.44704 11.8186 6.9781C11.5169 7.50916 11.3549 8.10808 11.3478 8.71879C11.3498 9.40614 11.5535 10.0778 11.9335 10.6506C12.3135 11.2233 12.8532 11.672 13.4857 11.9411C13.2363 12.7457 12.8672 13.5082 12.3909 14.2029C11.7093 15.1841 10.9966 16.1652 9.91217 16.1652C8.82777 16.1652 8.54887 15.5352 7.29917 15.5352C6.08047 15.5352 5.64667 16.1859 4.65517 16.1859C3.66367 16.1859 2.97177 15.277 2.17647 14.1616C1.12594 12.599 0.548582 10.7665 0.513672 8.88399C0.513672 5.78559 2.52767 4.14349 4.51057 4.14349C5.56407 4.14349 6.44197 4.83539 7.10297 4.83539C7.73297 4.83539 8.71417 4.10209 9.91217 4.10209C10.5281 4.0862 11.1386 4.22201 11.6897 4.49757C12.2408 4.77313 12.7157 5.17998 13.0726 5.68229ZM9.34417 2.79049C9.87227 2.16925 10.1712 1.38562 10.1911 0.570488C10.192 0.46303 10.1816 0.355776 10.1601 0.250488C9.25293 0.339102 8.41408 0.771463 7.81557 1.45889C7.28238 2.05537 6.97217 2.81808 6.93767 3.61739C6.93807 3.7146 6.94846 3.8115 6.96867 3.90659C7.04019 3.92011 7.11279 3.92704 7.18557 3.92729C7.60365 3.89402 8.01059 3.77609 8.38167 3.58067C8.75275 3.38524 9.08022 3.1164 9.34417 2.79049Z" fill="white" fill-opacity="0.8"/>
</svg>
