<svg width="15" height="15" viewBox="0 0 15 15" fill="none" xmlns="http://www.w3.org/2000/svg">
<path d="M13.9867 13.2022L10.1167 9.3322C10.8177 8.4032 11.2387 7.2512 11.2387 6.0002C11.2387 2.9402 8.74967 0.450195 5.68867 0.450195C2.62867 0.450195 0.138672 2.9402 0.138672 6.0002C0.138672 9.0612 2.62867 11.5502 5.68867 11.5502C6.93967 11.5502 8.09167 11.1292 9.02067 10.4282L12.8907 14.2982C13.0417 14.4492 13.2407 14.5262 13.4387 14.5262C13.6367 14.5262 13.8347 14.4502 13.9867 14.2982C14.2897 13.9952 14.2897 13.5052 13.9867 13.2022ZM1.23867 6.0002C1.23867 3.5462 3.23567 1.5502 5.68867 1.5502C8.14267 1.5502 10.1387 3.5472 10.1387 6.0002C10.1387 8.4532 8.14267 10.4502 5.68867 10.4502C3.23467 10.4502 1.23867 8.4542 1.23867 6.0002Z" fill="white" fill-opacity="0.8"/>
</svg>
